<?xml version="1.0" ?><svg viewBox="0 0 64 64" xmlns="http://www.w3.org/2000/svg"><defs><style>.cls-1{fill:none;stroke:#000;stroke-linejoin:round;stroke-width:2px;}</style></defs><title/><g data-name="Layer 15" id="Layer_15"><polyline class="cls-1" points="2 6 30 6 30 2 2 2 2 62 34 62 34 36 2 36"/><polyline class="cls-1" points="24 6 24 29 34 36"/><line class="cls-1" x1="2" x2="34" y1="40" y2="40"/><path class="cls-1" d="M24,10h0a4,4,0,0,1,4,4V25a4,4,0,0,1-4,4h0"/><line class="cls-1" x1="33" x2="36" y1="15" y2="12"/><line class="cls-1" x1="33" x2="36" y1="23" y2="26"/><line class="cls-1" x1="34" x2="38" y1="19" y2="19"/><line class="cls-1" x1="2" x2="34" y1="58" y2="58"/><line class="cls-1" x1="56" x2="56" y1="58" y2="40"/><path class="cls-1" d="M52,7v6a5,5,0,0,0,5,5h0a5,5,0,0,0,5-5V4H50a4,4,0,0,0,4,4h2l3,4.646A3.991,3.991,0,0,0,62,14h0"/><path class="cls-1" d="M52,24a4,4,0,0,1,4-4h6V62H54V60a2,2,0,0,1,2-2h6"/><line class="cls-1" x1="52" x2="52" y1="58" y2="28"/><path class="cls-1" d="M54,62H50V60a2,2,0,0,1,2-2h4"/><line class="cls-1" x1="52" x2="62" y1="37" y2="37"/><rect class="cls-1" height="4" rx="2" width="16" x="43" y="24"/><line class="cls-1" x1="54" x2="54" y1="24" y2="28"/></g></svg>