<svg width="32" height="38" viewBox="0 0 32 38" fill="none" xmlns="http://www.w3.org/2000/svg">
<g id="Group 37">
<path id="Union" fill-rule="evenodd" clip-rule="evenodd" d="M29.6569 2.34315C32 4.68629 32 8.45753 32 16V24.925C32 28.8324 28.8324 32 24.925 32H24.4745C23.373 32 22.3028 32.3035 21.3756 32.8643L16.2311 38.0089L12.7993 34.5771C12.4354 34.3458 12.0909 34.0713 11.7733 33.7537C10.6504 32.6308 9.12752 32 7.53956 32H7.08495C3.17204 32 0 28.828 0 24.9151V16C0 8.45753 0 4.68629 2.34315 2.34315C4.68629 0 8.45753 0 16 0C23.5425 0 27.3137 0 29.6569 2.34315Z" fill="#0085FF"/>
<g id="Group 20">
<rect id="Rectangle 50" x="5" y="6" width="22" height="22" rx="11" fill="white"/>
<rect id="Rectangle 52" x="9" y="10" width="14" height="14" rx="7" fill="#FF2727"/>
</g>
</g>
</svg>
