<svg width="20" height="21" viewBox="0 0 20 21" fill="none" xmlns="http://www.w3.org/2000/svg">
<path d="M4.16675 8.76904C4.16675 12.8122 7.70381 16.1558 9.26941 17.4377C9.49347 17.6211 9.60684 17.714 9.774 17.761C9.90417 17.7977 10.0957 17.7977 10.2259 17.761C10.3934 17.7139 10.506 17.622 10.7309 17.4378C12.2965 16.1559 15.8333 12.8126 15.8333 8.76941C15.8333 7.23932 15.2188 5.77171 14.1248 4.68977C13.0309 3.60783 11.5472 3 10.0001 3C8.45305 3 6.96925 3.60792 5.87529 4.68986C4.78133 5.7718 4.16675 7.23895 4.16675 8.76904Z" stroke="#0085FF" stroke-width="2" stroke-linecap="round" stroke-linejoin="round"/>
<path d="M8.33341 8C8.33341 8.92047 9.07961 9.66667 10.0001 9.66667C10.9206 9.66667 11.6667 8.92047 11.6667 8C11.6667 7.07953 10.9206 6.33333 10.0001 6.33333C9.07961 6.33333 8.33341 7.07953 8.33341 8Z" stroke="#0085FF" stroke-width="2" stroke-linecap="round" stroke-linejoin="round"/>
</svg>
