<svg xmlns="http://www.w3.org/2000/svg" xmlns:xlink="http://www.w3.org/1999/xlink" version="1.1" x="0px" y="0px" viewBox="0 0 500 625" style="enable-background:new 0 0 500 500;" xml:space="preserve"><path d="M205.8,292.7h73.7c0.7,0,1.3,0,1.9-0.1h12.8c42.9,0,77.8-34.9,77.8-77.8S337.1,137,294.2,137h-58.9  c-10.7,0-19.5-8.7-19.5-19.5v-22l10,10c4.9,4.9,11.3,7.3,17.7,7.3s12.8-2.4,17.7-7.3c9.8-9.8,9.8-25.6,0-35.4l-52.7-52.7  c-4.7-4.7-11-7.3-17.7-7.3c-6.6,0-13,2.6-17.7,7.3l-52.7,52.7c-9.8,9.8-9.8,25.6,0,35.4c9.8,9.8,25.6,9.8,35.4,0l10.1-10.1v22  c0,38.3,31.2,69.5,69.5,69.5h58.9c15.3,0,27.8,12.5,27.8,27.8c0,15.3-12.5,27.8-27.8,27.8h-19.9c-0.7,0-1.3,0-1.9,0.1h-66.6  c-42.9,0-77.8,34.9-77.8,77.8s34.9,77.8,77.8,77.8h56.9c10.7,0,19.5,8.7,19.5,19.5v47c0,13.8,11.2,25,25,25c13.8,0,25-11.2,25-25  v-47c0-38.3-31.2-69.5-69.5-69.5h-56.9c-15.3,0-27.8-12.5-27.8-27.8C178,305.2,190.5,292.7,205.8,292.7z"/><text x="0" y="515" fill="#000000" font-size="5px" font-weight="bold" font-family="'Helvetica Neue', Helvetica, Arial-Unicode, Arial, Sans-serif">Created by iconfield</text><text x="0" y="520" fill="#000000" font-size="5px" font-weight="bold" font-family="'Helvetica Neue', Helvetica, Arial-Unicode, Arial, Sans-serif">from the Noun Project</text></svg>