<?xml version="1.0" encoding="iso-8859-1"?>
<!-- Uploaded to: SVG Repo, www.svgrepo.com, Generator: SVG Repo Mixer Tools -->
<svg height="800px" width="800px" version="1.1" id="Layer_1" xmlns="http://www.w3.org/2000/svg" xmlns:xlink="http://www.w3.org/1999/xlink" 
	 viewBox="0 0 512 512" xml:space="preserve">
<g transform="translate(0 -1)">
	<path style="fill:#86949B;" d="M326.621,513H203.034c0-19.5,15.81-35.31,35.31-35.31h52.966
		C310.81,477.69,326.621,493.5,326.621,513"/>
	<g>
		<path style="fill:#556080;" d="M453.232,151.069H97.101l-52.966-44.138l52.966-44.138h356.131c8.077,0,14.627,6.55,14.627,14.627
			v59.021C467.859,144.519,461.309,151.069,453.232,151.069"/>
		<path style="fill:#556080;" d="M58.768,221.69h356.131l52.966,44.138l-52.966,44.138H58.768c-8.077,0-14.627-6.55-14.627-14.627
			v-59.021C44.141,228.24,50.691,221.69,58.768,221.69"/>
	</g>
	<g>
		<polygon style="fill:#B0BAC1;" points="247.172,221.687 282.483,221.687 282.483,151.066 247.172,151.066 		"/>
		<polygon style="fill:#B0BAC1;" points="247.172,477.687 282.483,477.687 282.483,309.963 247.172,309.963 		"/>
		<path style="fill:#B0BAC1;" d="M282.483,62.793V18.655C282.483,8.901,274.582,1,264.828,1s-17.655,7.901-17.655,17.655v44.138
			H282.483z"/>
	</g>
	<g>
		<path style="fill:#FFFFFF;" d="M194.207,115.759h-88.276c-4.873,0-8.828-3.946-8.828-8.828c0-4.882,3.955-8.828,8.828-8.828
			h88.276c4.873,0,8.828,3.946,8.828,8.828C203.034,111.813,199.08,115.759,194.207,115.759"/>
		<path style="fill:#FFFFFF;" d="M414.897,115.759h-79.448c-4.873,0-8.828-3.946-8.828-8.828c0-4.882,3.955-8.828,8.828-8.828
			h79.448c4.882,0,8.828,3.946,8.828,8.828C423.724,111.813,419.778,115.759,414.897,115.759"/>
		<path style="fill:#FFFFFF;" d="M282.483,115.759h-35.31c-4.873,0-8.828-3.946-8.828-8.828c0-4.882,3.955-8.828,8.828-8.828h35.31
			c4.873,0,8.828,3.946,8.828,8.828C291.31,111.813,287.356,115.759,282.483,115.759"/>
		<path style="fill:#FFFFFF;" d="M185.379,274.655H97.103c-4.873,0-8.828-3.946-8.828-8.828S92.231,257,97.103,257h88.276
			c4.873,0,8.828,3.946,8.828,8.828S190.252,274.655,185.379,274.655"/>
		<path style="fill:#FFFFFF;" d="M406.069,274.655h-79.448c-4.873,0-8.828-3.946-8.828-8.828s3.955-8.828,8.828-8.828h79.448
			c4.882,0,8.828,3.946,8.828,8.828S410.951,274.655,406.069,274.655"/>
		<path style="fill:#FFFFFF;" d="M273.655,274.655h-35.31c-4.873,0-8.828-3.946-8.828-8.828s3.955-8.828,8.828-8.828h35.31
			c4.873,0,8.828,3.946,8.828,8.828S278.528,274.655,273.655,274.655"/>
	</g>
</g>
</svg>